<?xml version="1.0" encoding="UTF-8" standalone="no"?>
<!DOCTYPE svg PUBLIC "-//W3C//DTD SVG 1.0//EN" "http://www.w3.org/TR/2001/REC-SVG-20010904/DTD/svg10.dtd">
<!-- Generated by Microsoft Visio 11.0, SVG Export, v1.0 docbat-logo.svg Page-1 -->
<svg xmlns="http://www.w3.org/2000/svg" xmlns:xlink="http://www.w3.org/1999/xlink" xmlns:ev="http://www.w3.org/2001/xml-events"
		xmlns:v="http://schemas.microsoft.com/visio/2003/SVGExtensions/" width="3.05184in" height="1in" viewBox="0 0 219.732 72"
		xml:space="preserve" color-interpolation-filters="sRGB" class="st5">
	<v:documentProperties v:langID="1033" v:viewMarkup="false"/>

	<style type="text/css">
	<![CDATA[
		.st1 {fill:none;stroke:none;stroke-linecap:round;stroke-linejoin:round;stroke-width:0.75}
		.st2 {fill:#000000;font-family:Bahnschrift Condensed;font-size:4.99999em}
		.st3 {fill:#000000;stroke:#000000;stroke-linecap:round;stroke-linejoin:round;stroke-width:0.24}
		.st4 {fill:#000000;stroke:none;stroke-linecap:round;stroke-linejoin:round;stroke-width:0.24}
		.st5 {fill:none;fill-rule:evenodd;font-size:12px;overflow:visible;stroke-linecap:square;stroke-miterlimit:3}
	]]>
	</style>

	<g v:mID="0" v:index="1" v:groupContext="foregroundPage">
		<title>Page-1</title>
		<v:pageProperties v:drawingScale="1" v:pageScale="1" v:drawingUnits="0" v:shadowOffsetX="9" v:shadowOffsetY="-9"/>
		<g id="group81-1" transform="translate(0.24,-15.75)" v:mID="81" v:groupContext="group">
			<title>Sheet.81</title>
			<g id="shape593-2" v:mID="593" v:groupContext="shape" transform="translate(56.7422,0)">
				<title>Sheet.593</title>
				<desc>DOCBAT</desc>
				<v:textBlock v:margins="rect(2,2,2,2)"/>
				<v:textRect cx="81" cy="51.75" width="162" height="40.5"/>
				<rect x="0" y="31.5" width="162" height="40.5" class="st1"/>
				<text x="2" y="69.75" class="st2" v:langID="1033"><v:paragraph/><v:tabList/>DOCBAT</text>			</g>
			<g id="group77-5" transform="translate(0,-1.6875)" v:mID="77" v:groupContext="group">
				<title>Sheet.77</title>
				<g id="shape592-6" v:mID="592" v:groupContext="shape" transform="translate(0,101.901) scale(1,-1)">
					<title>Sheet.592</title>
					<path d="M28.12 65.25 L28.12 64.63 L8.65 64.63 A4.32629 2.45634 -180 0 0 4.33 67.09 A4.32629 2.45634 -180 0 0
								 8.65 69.54 L30.28 69.54 A6.48943 3.68451 -180 0 0 36.77 65.86 A6.48943 3.68451 -180 0 0 30.28 62.17
								 L8.65 62.17 A8.65257 4.91268 -180 0 0 0 67.09 A8.65257 4.91268 -180 0 0 8.65 72 L30.28 72 L30.28
								 71.39 L8.65 71.39 A7.571 4.29859 0 0 1 1.08 67.09 A7.571 4.29859 0 0 1 8.65 62.79 L30.28 62.79 A5.40786
								 3.07042 0 0 1 35.69 65.86 A5.40786 3.07042 0 0 1 30.28 68.93 L8.65 68.93 A3.24472 1.84225 0 0 1
								 5.41 67.09 A3.24472 1.84225 0 0 1 8.65 65.25 L28.12 65.25 Z" class="st3"/>
				</g>
				<g id="shape490-8" v:mID="490" v:groupContext="shape" transform="translate(0.771466,0)">
					<title>Sheet.490</title>
					<path d="M24.87 72 C26 70.75 26.08 68.23 24.38 67.5 A7.66239 7.09517 -180 0 0 21.41 57.34 A6.62693 9.01278 -180
								 0 0 21.51 57.25 A8.67597 7.32761 -0 0 1 29.43 64.55 A21.503 9.22318 -99.48 0 0 35.25 42.23 A7.09047
								 6.56972 84.75 0 1 31.33 48.93 A15.6764 7.68858 -124.48 0 0 28.37 42.63 A5.63459 5.02426 177.4 0
								 1 25.19 49.17 L24.35 49.49 A6.62693 9.01278 -180 0 0 22.61 43.76 A1.91667 3.01079 -180 0 0 20.97
								 38.44 L20.97 41.99 A6.62693 9.01278 -180 0 0 14.54 41.94 L14.54 38.44 A3.01079 1.91667 -90 0 0 12.87
								 43.71 A6.62693 9.01278 -180 0 0 11.12 49.05 L10.42 48.78 A5.63459 5.02426 2.6 0 1 7.25 42.23 A15.6764
								 7.68858 -55.52 0 0 4.18 48.86 A7.18099 6.57032 94.49 0 1 0.59 42.23 A21.7722 9.22633 -80.69 0 0
								 6.41 64.83 A8.67597 7.42184 0 0 1 14.17 57.45 L14.18 57.47 A7.66239 7.09517 -180 0 0 11.46 67.46
								 C9.67 68.14 9.73 70.73 10.89 72 L13.54 69.54 C13.54 69.52 13.54 69.49 13.53 69.47 A7.66239 7.09517
								 -180 0 0 22.21 69.54 L24.87 72 ZM21.86 66.66 A1.24255 2.10937 0 1 1 19.37 66.66 A1.24255 2.10937
								 0 1 1 21.86 66.66 ZM16.47 66.66 A1.24255 2.10937 0 1 1 13.99 66.66 A1.24255 2.10937 0 1 1 16.47
								 66.66 Z" class="st4"/>
				</g>
			</g>
		</g>
	</g>
</svg>
