<?xml version="1.0" encoding="UTF-8" standalone="no"?>
<!DOCTYPE svg PUBLIC "-//W3C//DTD SVG 1.0//EN" "http://www.w3.org/TR/2001/REC-SVG-20010904/DTD/svg10.dtd">
<!-- Generated by Microsoft Visio 11.0, SVG Export, v1.0 docbat-icon.svg Page-1 -->
<svg xmlns="http://www.w3.org/2000/svg" xmlns:xlink="http://www.w3.org/1999/xlink" xmlns:ev="http://www.w3.org/2001/xml-events"
		xmlns:v="http://schemas.microsoft.com/visio/2003/SVGExtensions/" width="0.528151in" height="0.591509in"
		viewBox="0 0 38.0269 42.5886" xml:space="preserve" color-interpolation-filters="sRGB" class="st3">
	<v:documentProperties v:langID="1033" v:viewMarkup="false"/>

	<style type="text/css">
	<![CDATA[
		.st1 {fill:#000000;stroke:none;stroke-linecap:round;stroke-linejoin:round;stroke-width:0.24}
		.st2 {fill:#000000;stroke:#000000;stroke-linecap:round;stroke-linejoin:round;stroke-width:0.24}
		.st3 {fill:none;fill-rule:evenodd;font-size:12px;overflow:visible;stroke-linecap:square;stroke-miterlimit:3}
	]]>
	</style>

	<g v:mID="0" v:index="1" v:groupContext="foregroundPage">
		<title>Page-1</title>
		<v:pageProperties v:drawingScale="1" v:pageScale="1" v:drawingUnits="0" v:shadowOffsetX="9" v:shadowOffsetY="-9"/>
		<g id="group573-1" transform="translate(0.24,-0.24)" v:mID="573" v:groupContext="group">
			<title>Sheet.573</title>
			<g id="shape574-2" v:mID="574" v:groupContext="shape" transform="translate(1.05272,0)">
				<title>Sheet.574</title>
				<path d="M24.87 42.59 C26 41.34 26.08 38.82 24.38 38.08 A7.66239 7.09517 -180 0 0 21.41 27.92 A6.62693 9.01278 -180
							 0 0 21.51 27.84 A8.67597 7.32761 -0 0 1 29.43 35.13 A21.503 9.22318 -99.48 0 0 35.25 12.82 A7.09047
							 6.56972 84.75 0 1 31.33 19.52 A15.6764 7.68858 -124.48 0 0 28.37 13.21 A5.63459 5.02426 177.4 0 1 25.19
							 19.76 L24.35 20.08 A6.62693 9.01278 -180 0 0 22.61 14.35 A1.91667 3.01079 -180 0 0 20.97 9.03 L20.97
							 12.58 A6.62693 9.01278 -180 0 0 14.54 12.53 L14.54 9.03 A3.01079 1.91667 -90 0 0 12.87 14.3 A6.62693
							 9.01278 -180 0 0 11.12 19.64 L10.42 19.37 A5.63459 5.02426 2.6 0 1 7.25 12.82 A15.6764 7.68858 -55.52
							 0 0 4.18 19.44 A7.18099 6.57032 94.49 0 1 0.59 12.82 A21.7722 9.22633 -80.69 0 0 6.41 35.42 A8.67597
							 7.42184 0 0 1 14.17 28.04 L14.18 28.06 A7.66239 7.09517 -180 0 0 11.46 38.05 C9.67 38.73 9.73 41.32
							 10.89 42.59 L13.54 40.13 C13.54 40.1 13.54 40.08 13.53 40.06 A7.66239 7.09517 -180 0 0 22.21 40.13 L24.87
							 42.59 ZM22.89 32.45 A7.35176 3.71922 -180 0 0 12.95 32.55 A4.9702 3.5126 0 0 1 22.89 32.45 ZM16.47 37.25
							 A1.24255 2.10937 0 1 1 13.99 37.25 A1.24255 2.10937 0 1 1 16.47 37.25 ZM21.86 37.25 A1.24255 2.10937
							 0 1 1 19.37 37.25 A1.24255 2.10937 0 1 1 21.86 37.25 Z" class="st1"/>
			</g>
			<g id="shape575-4" v:mID="575" v:groupContext="shape" transform="translate(0,43.0686) scale(1,-1)">
				<title>Sheet.575</title>
				<path d="M28.71 35.83 L28.71 35.22 L8.83 35.22 A4.41728 2.45634 -180 0 0 4.42 37.68 A4.41728 2.45634 -180 0 0 8.83
							 40.13 L30.92 40.13 A6.62592 3.68451 -180 0 0 37.55 36.45 A6.62592 3.68451 -180 0 0 30.92 32.76 L8.83
							 32.76 A8.83456 4.91268 -180 0 0 0 37.68 A8.83456 4.91268 -180 0 0 8.83 42.59 L30.92 42.59 L30.92 41.97
							 L8.83 41.97 A7.73024 4.29859 0 0 1 1.1 37.68 A7.73024 4.29859 0 0 1 8.83 33.38 L30.92 33.38 A5.5216
							 3.07042 0 0 1 36.44 36.45 A5.5216 3.07042 0 0 1 30.92 39.52 L8.83 39.52 A3.31296 1.84225 0 0 1 5.52
							 37.68 A3.31296 1.84225 0 0 1 8.83 35.83 L28.71 35.83 Z" class="st2"/>
			</g>
		</g>
	</g>
</svg>
