<?xml version="1.0" encoding="UTF-8" standalone="no"?>
<!DOCTYPE svg PUBLIC "-//W3C//DTD SVG 1.0//EN" "http://www.w3.org/TR/2001/REC-SVG-20010904/DTD/svg10.dtd">
<!-- Generated by Microsoft Visio 11.0, SVG Export, v1.0 docbat-icon.svg Page-1 -->
<svg xmlns="http://www.w3.org/2000/svg" xmlns:xlink="http://www.w3.org/1999/xlink" xmlns:ev="http://www.w3.org/2001/xml-events"
		xmlns:v="http://schemas.microsoft.com/visio/2003/SVGExtensions/" width="0.517409in" height="0.591381in"
		viewBox="0 0 37.2534 42.5794" xml:space="preserve" color-interpolation-filters="sRGB" class="st3">
	<v:documentProperties v:langID="1033" v:viewMarkup="false"/>

	<style type="text/css">
	<![CDATA[
		.st1 {fill:#000000;stroke:#000000;stroke-linecap:round;stroke-linejoin:round;stroke-width:0.24}
		.st2 {fill:#000000;stroke:none;stroke-linecap:round;stroke-linejoin:round;stroke-width:0.24}
		.st3 {fill:none;fill-rule:evenodd;font-size:12px;overflow:visible;stroke-linecap:square;stroke-miterlimit:3}
	]]>
	</style>

	<g v:mID="0" v:index="1" v:groupContext="foregroundPage">
		<title>Page-1</title>
		<v:pageProperties v:drawingScale="1" v:pageScale="1" v:drawingUnits="0" v:shadowOffsetX="9" v:shadowOffsetY="-9"/>
		<g id="group78-1" transform="translate(0.24,-0.24)" v:mID="78" v:groupContext="group">
			<title>Sheet.78</title>
			<g id="shape79-2" v:mID="79" v:groupContext="shape" transform="translate(0,43.0594) scale(1,-1)">
				<title>Sheet.79</title>
				<path d="M28.12 35.82 L28.12 35.21 L8.65 35.21 A4.32629 2.45634 -180 0 0 4.33 37.67 A4.32629 2.45634 -180 0 0 8.65
							 40.12 L30.28 40.12 A6.48943 3.68451 -180 0 0 36.77 36.44 A6.48943 3.68451 -180 0 0 30.28 32.75 L8.65
							 32.75 A8.65257 4.91268 -180 0 0 0 37.67 A8.65257 4.91268 -180 0 0 8.65 42.58 L30.28 42.58 L30.28 41.97
							 L8.65 41.97 A7.571 4.29859 0 0 1 1.08 37.67 A7.571 4.29859 0 0 1 8.65 33.37 L30.28 33.37 A5.40786 3.07042
							 0 0 1 35.69 36.44 A5.40786 3.07042 0 0 1 30.28 39.51 L8.65 39.51 A3.24472 1.84225 0 0 1 5.41 37.67 A3.24472
							 1.84225 0 0 1 8.65 35.82 L28.12 35.82 Z" class="st1"/>
			</g>
			<g id="shape80-4" v:mID="80" v:groupContext="shape" transform="translate(0.771466,-7.10543E-015)">
				<title>Sheet.80</title>
				<path d="M24.87 42.58 C26 41.33 26.08 38.81 24.38 38.07 A7.66239 7.09517 -180 0 0 21.41 27.92 A6.62693 9.01278 -180
							 0 0 21.51 27.83 A8.67597 7.32761 -0 0 1 29.43 35.13 A21.503 9.22318 -99.48 0 0 35.25 12.81 A7.09047
							 6.56972 84.75 0 1 31.33 19.51 A15.6764 7.68858 -124.48 0 0 28.37 13.2 A5.63459 5.02426 177.4 0 1 25.19
							 19.75 L24.35 20.07 A6.62693 9.01278 -180 0 0 22.61 14.34 A1.91667 3.01079 -180 0 0 20.97 9.02 L20.97
							 12.57 A6.62693 9.01278 -180 0 0 14.54 12.52 L14.54 9.02 A3.01079 1.91667 -90 0 0 12.87 14.29 A6.62693
							 9.01278 -180 0 0 11.12 19.63 L10.42 19.36 A5.63459 5.02426 2.6 0 1 7.25 12.81 A15.6764 7.68858 -55.52
							 0 0 4.18 19.43 A7.18099 6.57032 94.49 0 1 0.59 12.81 A21.7722 9.22633 -80.69 0 0 6.41 35.41 A8.67597
							 7.42184 0 0 1 14.17 28.03 L14.18 28.05 A7.66239 7.09517 -180 0 0 11.46 38.04 C9.67 38.72 9.73 41.31
							 10.89 42.58 L13.54 40.12 C13.54 40.1 13.54 40.07 13.53 40.05 A7.66239 7.09517 -180 0 0 22.21 40.12 L24.87
							 42.58 ZM21.86 37.24 A1.24255 2.10937 0 1 1 19.37 37.24 A1.24255 2.10937 0 1 1 21.86 37.24 ZM16.47 37.24
							 A1.24255 2.10937 0 1 1 13.99 37.24 A1.24255 2.10937 0 1 1 16.47 37.24 Z" class="st2"/>
			</g>
		</g>
	</g>
</svg>
