<?xml version="1.0" encoding="UTF-8" standalone="no"?>
<!DOCTYPE svg PUBLIC "-//W3C//DTD SVG 1.0//EN" "http://www.w3.org/TR/2001/REC-SVG-20010904/DTD/svg10.dtd">
<!-- Generated by Microsoft Visio 11.0, SVG Export, v1.0 docbat-icon.svg Page-1 -->
<svg xmlns="http://www.w3.org/2000/svg" xmlns:xlink="http://www.w3.org/1999/xlink" xmlns:ev="http://www.w3.org/2001/xml-events"
		xmlns:v="http://schemas.microsoft.com/visio/2003/SVGExtensions/" width="0.703125in" height="0.622202in"
		viewBox="0 0 50.625 44.7985" xml:space="preserve" color-interpolation-filters="sRGB" class="st6">
	<v:documentProperties v:langID="1033" v:viewMarkup="false"/>

	<style type="text/css">
	<![CDATA[
		.st1 {fill:#000000;stroke:none;stroke-linecap:round;stroke-linejoin:round;stroke-width:1}
		.st2 {fill:#000000;stroke:none;stroke-linecap:round;stroke-linejoin:round;stroke-width:0.24}
		.st3 {fill:#ffffff;stroke:none;stroke-linecap:round;stroke-linejoin:round;stroke-width:1}
		.st4 {fill:#ffffff;stroke:#000000;stroke-linecap:round;stroke-linejoin:round;stroke-width:0.24}
		.st5 {fill:#000000;stroke:#000000;stroke-linecap:round;stroke-linejoin:round;stroke-width:0.24}
		.st6 {fill:none;fill-rule:evenodd;font-size:12px;overflow:visible;stroke-linecap:square;stroke-miterlimit:3}
	]]>
	</style>

	<g v:mID="0" v:index="1" v:groupContext="foregroundPage">
		<title>Page-1</title>
		<v:pageProperties v:drawingScale="1" v:pageScale="1" v:drawingUnits="0" v:shadowOffsetX="9" v:shadowOffsetY="-9"/>
		<g id="group103-1" transform="translate(1.59872E-014,45.7985) scale(1,-1)" v:mID="103" v:groupContext="group">
			<title>Sheet.103</title>
			<g id="group104-2" transform="translate(4.21875,-3.55271E-014)" v:mID="104" v:groupContext="group">
				<title>Sheet.104</title>
				<g id="group105-3" v:mID="105" v:groupContext="group">
					<title>Sheet.105</title>
					<g id="shape106-4" v:mID="106" v:groupContext="shape">
						<title>Sheet.106</title>
						<rect x="0" y="36.7126" width="2.77803" height="8.08594" class="st1"/>
					</g>
				</g>
				<g id="shape107-6" v:mID="107" v:groupContext="shape" transform="translate(2.56434,0)">
					<title>Sheet.107</title>
					<path d="M0 36.71 L34.19 36.71 L41.03 40.76 L34.19 44.8 L0 44.8 L0 36.71 Z" class="st2"/>
				</g>
				<g id="shape108-8" v:mID="108" v:groupContext="shape" transform="translate(3.51563,-1.75781)">
					<title>Sheet.108</title>
					<rect x="0" y="40.2282" width="33.0469" height="4.57031" class="st3"/>
				</g>
				<g id="group109-10" transform="translate(0.747932,-1.75781)" v:mID="109" v:groupContext="group">
					<title>Sheet.109</title>
					<g id="shape110-11" v:mID="110" v:groupContext="shape">
						<title>Sheet.110</title>
						<rect x="0" y="40.2282" width="1.81641" height="4.57031" class="st3"/>
					</g>
				</g>
				<g id="shape111-13" v:mID="111" v:groupContext="shape" transform="translate(37.6103,-1.91205)">
					<title>Sheet.111</title>
					<path d="M0 40.73 L0 44.8 L2.47 43.44 L2.47 41.98 L0 40.73 Z" class="st4"/>
				</g>
			</g>
			<g id="group112-15" transform="translate(0,-7.03125)" v:mID="112" v:groupContext="group">
				<title>Sheet.112</title>
				<g id="group113-16" transform="translate(1.59872E-014,-0.203403)" v:mID="113" v:groupContext="group">
					<title>Sheet.113</title>
					<g id="shape114-17" v:mID="114" v:groupContext="shape" transform="translate(18.2582,-2.49777)">
						<title>Sheet.114</title>
						<ellipse cx="6.63934" cy="35.0156" rx="6.63934" ry="9.78292" class="st5"/>
					</g>
					<g id="shape115-19" v:mID="115" v:groupContext="shape" transform="translate(26.6826,1.16167)">
						<title>Sheet.115</title>
						<path d="M0.67 23.89 A8.71936 8.80182 -180 0 0 9.39 15.09 A29.7061 10.7315 90 0 1 20.12 44.8 A9.39008 12.1025
									 -180 0 0 10.73 32.7 L0 32.7 a0.67072 8.80182 -180 0 0 0.67072 -8.80182 Z" class="st5"/>
					</g>
					<g id="shape116-21" v:mID="116" v:groupContext="shape" transform="translate(22.9245,0.958262) scale(-1,1)">
						<title>Sheet.116</title>
						<path d="M0.67 24.04 A8.69222 8.74155 -180 0 0 9.36 15.3 A29.5027 10.6981 90 0 1 20.06 44.8 A9.36085 12.0196
									 -180 0 0 10.7 32.78 L0 32.78 a0.668632 8.74155 -180 0 0 0.668632 -8.74155 Z" class="st5"/>
					</g>
				</g>
				<g id="shape117-23" v:mID="117" v:groupContext="shape" transform="translate(28.1492,-1.42109E-014)">
					<title>Sheet.117</title>
					<path d="M-0 44.69 A1.92026 3.26806 -180 1 0 -0 38.37 L0 44.69 Z" class="st5"/>
				</g>
				<g id="shape118-25" v:mID="118" v:groupContext="shape" transform="translate(21.712,-1.42109E-014) scale(-1,1)">
					<title>Sheet.118</title>
					<path d="M-0 44.69 A1.92026 3.26806 -180 1 0 -0 38.37 L0 44.69 Z" class="st5"/>
				</g>
				<g id="group119-27" transform="translate(17.2208,-19.7692)" v:mID="119" v:groupContext="group">
					<title>Sheet.119</title>
					<g id="shape120-28" v:mID="120" v:groupContext="shape" transform="translate(0.20748,2.13163E-014)">
						<title>Sheet.120</title>
						<ellipse cx="7.67674" cy="37.0971" rx="7.67674" ry="7.70144" class="st5"/>
					</g>
					<g id="shape121-30" v:mID="121" v:groupContext="shape" transform="translate(3.94211,-8.32589)">
						<title>Sheet.121</title>
						<ellipse cx="1.24488" cy="42.5089" rx="1.24488" ry="2.28962" class="st4"/>
					</g>
					<g id="shape122-32" v:mID="122" v:groupContext="shape" transform="translate(9.33658,-8.32589)">
						<title>Sheet.122</title>
						<ellipse cx="1.24488" cy="42.5089" rx="1.24488" ry="2.28962" class="st4"/>
					</g>
					<g id="shape123-34" v:mID="123" v:groupContext="shape" transform="translate(2.90578,-1.7063)">
						<title>Sheet.123</title>
						<path d="M9.96 41.1 A7.36552 4.03703 0 0 1 0 40.99 A4.97951 3.81275 -180 0 0 9.96 41.1 Z" class="st4"/>
					</g>
					<g id="shape124-36" v:mID="124" v:groupContext="shape" transform="translate(12.1725,-11.6562)">
						<title>Sheet.124</title>
						<path d="M0 42.37 L2.66 39.7 C3.96 41.24 3.87 44.61 1.31 44.8 C0.5 44.23 0.08 43.44 0 42.37 Z" class="st5"/>
					</g>
					<g id="shape125-38" v:mID="125" v:groupContext="shape" transform="translate(3.48535,-11.6562) scale(-1,1)">
						<title>Sheet.125</title>
						<path d="M0 42.37 L2.66 39.7 C3.96 41.24 3.87 44.61 1.31 44.8 C0.5 44.23 0.08 43.44 0 42.37 Z" class="st5"/>
					</g>
				</g>
			</g>
			<g id="shape126-40" v:mID="126" v:groupContext="shape" transform="translate(7.03125,-3.16406)">
				<title>Sheet.126</title>
				<rect x="0" y="43.0407" width="34.2773" height="1.75781" class="st1"/>
			</g>
		</g>
	</g>
</svg>
