<?xml version="1.0" standalone="no"?>
<!DOCTYPE svg PUBLIC "-//W3C//DTD SVG 20010904//EN"
 "http://www.w3.org/TR/2001/REC-SVG-20010904/DTD/svg10.dtd">
<svg version="1.0" xmlns="http://www.w3.org/2000/svg"
 width="912.000000pt" height="912.000000pt" viewBox="0 0 912.000000 912.000000"
 preserveAspectRatio="xMidYMid meet">
<metadata>
Created by potrace 1.11, written by Peter Selinger 2001-2013
</metadata>
<g transform="translate(0.000000,912.000000) scale(0.100000,-0.100000)"
fill="#000000" stroke="none">
<path d="M2377 9094 c-1 -1 -54 -4 -117 -8 -63 -3 -126 -8 -140 -10 -14 -2
-47 -7 -75 -10 -58 -7 -96 -13 -145 -23 -19 -4 -39 -8 -45 -8 -5 -1 -23 -4
-40 -8 -16 -4 -39 -9 -50 -12 -72 -16 -248 -67 -290 -85 -11 -4 -66 -27 -123
-50 -56 -23 -105 -46 -108 -51 -3 -5 -14 -9 -25 -9 -10 0 -19 -4 -19 -10 0 -5
-5 -10 -11 -10 -36 0 -264 -166 -354 -256 -54 -55 -125 -148 -125 -164 0 -5
-4 -10 -8 -10 -19 0 -88 -182 -98 -258 -11 -85 -11 -110 -1 -174 13 -91 13
-90 26 -121 6 -16 11 -32 11 -35 0 -4 14 -34 31 -67 73 -140 178 -258 330
-367 90 -66 121 -84 215 -133 57 -29 106 -53 107 -53 1 1 18 -6 37 -14 49 -22
145 -59 161 -62 8 -2 21 -6 29 -9 47 -19 248 -70 323 -82 17 -3 43 -8 57 -10
50 -10 66 -13 130 -20 36 -4 74 -9 85 -11 61 -11 297 -17 768 -17 l528 0 -7
-26 c-32 -121 -43 -203 -40 -316 4 -133 8 -162 32 -244 20 -71 48 -133 86
-193 l30 -48 -33 -52 c-31 -51 -47 -79 -87 -150 -20 -36 -103 -227 -106 -243
-1 -5 -4 -14 -7 -20 -7 -11 -32 -83 -35 -100 -1 -5 -11 -41 -22 -80 -27 -92
-47 -194 -67 -335 -2 -14 -7 -54 -10 -90 -4 -36 -8 -66 -10 -68 -10 -10 -277
106 -382 167 -165 94 -350 298 -431 474 -77 167 -116 391 -91 532 4 22 10 54
13 70 8 47 13 67 29 113 8 23 11 42 7 42 -8 0 -107 -166 -165 -275 -109 -206
-154 -295 -147 -295 4 0 2 -4 -4 -8 -5 -4 -34 -61 -63 -127 -72 -162 -83 -186
-120 -285 -52 -133 -56 -145 -57 -150 0 -3 -3 -12 -7 -20 -3 -8 -18 -51 -32
-95 -14 -44 -28 -85 -30 -92 -3 -10 -9 -10 -27 0 -35 19 -112 69 -118 76 -3 4
-21 18 -40 31 -98 67 -228 208 -338 366 -79 114 -189 386 -216 534 -2 14 -7
41 -10 60 -12 61 -17 113 -20 203 -2 48 -7 91 -11 95 -3 4 -5 2 -4 -3 2 -6 -1
-37 -5 -70 -5 -33 -10 -73 -12 -90 -2 -16 -6 -46 -9 -65 -2 -19 -7 -57 -10
-85 -3 -27 -8 -63 -10 -80 -3 -16 -7 -57 -10 -90 -4 -33 -8 -71 -9 -85 -2 -14
-6 -63 -10 -110 -4 -47 -9 -105 -11 -130 -3 -25 -8 -94 -11 -155 -3 -60 -7
-141 -10 -180 -5 -92 -5 -718 1 -820 3 -44 7 -114 9 -155 5 -80 13 -180 22
-270 4 -30 8 -73 9 -95 2 -22 4 -40 5 -40 1 0 3 -11 4 -25 3 -28 17 -127 21
-150 1 -8 5 -39 9 -69 4 -29 8 -57 11 -60 2 -4 6 -25 9 -47 3 -21 15 -86 27
-144 11 -58 22 -112 24 -120 1 -8 7 -33 13 -55 6 -22 13 -51 16 -65 13 -65 88
-318 113 -380 3 -8 7 -19 8 -25 4 -15 64 -163 87 -215 51 -114 123 -250 173
-327 30 -46 55 -88 55 -93 0 -4 3 -10 8 -12 4 -1 23 -23 42 -48 86 -111 201
-222 295 -284 132 -88 238 -132 373 -153 30 -5 32 -3 33 23 4 143 34 311 73
414 8 19 14 38 15 42 4 20 75 175 93 202 7 11 28 45 47 75 86 141 249 317 391
422 36 27 70 52 75 57 23 19 169 104 227 133 131 64 338 137 471 165 49 10
124 23 167 29 25 3 58 8 74 12 26 5 28 3 15 -8 -8 -8 -27 -21 -44 -29 -119
-59 -287 -198 -430 -354 -23 -25 -115 -152 -127 -176 -7 -14 -16 -27 -20 -30
-6 -5 -82 -162 -108 -225 -72 -171 -110 -463 -86 -660 14 -118 55 -284 82
-337 8 -16 12 -28 9 -28 -4 0 0 -12 8 -27 8 -16 23 -46 33 -68 24 -50 85 -158
94 -165 24 -18 15 -38 -29 -61 -62 -32 -151 -110 -151 -132 0 -4 -8 -16 -18
-27 -15 -16 -49 -95 -59 -135 -1 -5 -5 -23 -9 -40 -9 -37 -10 -219 -1 -260 12
-60 16 -73 31 -119 17 -48 61 -140 77 -160 5 -6 18 -23 30 -38 25 -35 30 -35
66 -1 17 16 69 64 117 108 48 44 118 108 154 143 37 35 105 98 151 140 47 42
91 84 99 93 12 14 23 11 110 -38 54 -29 117 -61 142 -70 25 -9 50 -20 55 -23
11 -8 129 -48 161 -55 10 -2 44 -10 74 -19 171 -45 468 -61 635 -33 17 3 50 9
75 12 159 25 353 91 510 174 36 18 72 40 81 47 17 15 31 6 119 -76 27 -25 90
-83 141 -130 51 -47 127 -117 168 -156 168 -158 165 -155 176 -138 6 9 20 27
32 41 18 22 76 128 79 143 0 3 11 39 24 80 21 63 24 94 23 195 0 104 -5 170
-12 170 -2 0 -4 10 -7 23 -7 39 -41 106 -81 160 -42 56 -71 80 -132 115 l-41
23 32 50 c17 27 37 63 45 79 7 17 24 49 37 72 43 76 105 267 122 373 17 105
21 171 19 275 -3 118 -12 222 -22 238 -2 4 -7 20 -9 35 -3 15 -10 45 -16 67
-6 22 -11 45 -12 50 -14 73 -146 339 -208 420 -90 115 -182 215 -264 285 -49
43 -173 130 -184 130 -5 0 -10 5 -10 10 0 6 -6 10 -14 10 -7 0 -19 7 -26 15
-7 8 -21 15 -31 15 -11 0 -19 4 -19 9 0 5 -16 15 -35 22 -103 37 50 43 220 9
64 -13 81 -17 130 -30 22 -6 49 -13 61 -15 12 -3 41 -12 65 -21 24 -8 51 -17
59 -19 22 -5 143 -57 225 -96 67 -32 248 -141 271 -163 6 -6 23 -20 39 -31 70
-50 190 -164 268 -256 110 -128 241 -363 272 -489 2 -8 4 -15 5 -15 1 0 3 -7
5 -15 1 -8 8 -35 15 -60 22 -80 37 -187 39 -278 l1 -44 48 7 c70 9 187 51 271
96 281 151 531 476 708 924 31 77 56 145 58 150 1 6 5 17 9 25 5 13 22 66 56
185 14 48 69 267 75 300 4 17 11 50 16 75 19 84 55 299 64 375 2 22 7 56 9 75
10 66 16 115 21 170 3 30 7 82 10 115 33 348 37 948 10 1315 -2 25 -6 83 -9
130 -4 47 -8 105 -11 130 -7 68 -14 139 -21 200 -3 30 -7 73 -9 95 -6 57 -13
117 -19 141 -2 11 -7 45 -10 75 -4 30 -8 63 -10 74 -3 11 -5 33 -5 49 -2 58
-11 17 -17 -75 -6 -96 -10 -140 -14 -149 -1 -3 -2 -8 -1 -13 2 -13 -37 -180
-53 -224 -8 -22 -12 -44 -9 -47 4 -3 1 -6 -5 -6 -7 0 -11 -3 -10 -7 1 -5 -3
-21 -8 -38 -6 -16 -12 -33 -13 -37 -5 -20 -104 -204 -136 -253 -126 -196 -312
-366 -537 -488 l-47 -26 -20 55 c-12 30 -21 57 -21 60 0 7 -69 194 -82 224 -6
14 -12 27 -12 30 -1 6 -18 45 -74 175 -39 90 -187 391 -233 475 -82 148 -162
281 -166 276 -3 -3 4 -33 15 -68 11 -35 23 -85 27 -113 9 -62 14 -247 7 -259
-2 -4 -6 -25 -8 -45 -4 -40 -5 -46 -23 -111 -21 -77 -62 -172 -102 -238 -22
-35 -39 -68 -39 -73 0 -5 -4 -9 -8 -9 -4 0 -15 -12 -24 -27 -30 -50 -147 -163
-236 -230 -74 -56 -290 -173 -318 -173 -5 0 -48 -15 -95 -34 l-86 -33 -2 46
c-5 93 -20 229 -36 319 -2 15 -7 43 -10 62 -3 19 -18 78 -32 130 -14 52 -27
102 -29 110 -6 26 -45 133 -65 177 -10 24 -19 46 -19 50 0 13 -107 220 -129
252 -12 16 -21 34 -21 40 0 6 -4 11 -9 11 -20 0 -18 30 5 64 52 76 91 168 114
271 17 71 20 99 21 200 1 107 -6 170 -25 246 -8 30 -16 62 -18 70 -3 12 98 14
707 15 732 1 868 5 1015 29 25 4 56 9 70 10 103 13 366 97 477 153 64 31 151
80 167 93 6 5 25 20 42 34 18 14 34 25 37 25 8 0 147 143 147 151 0 3 9 16 20
29 11 13 20 29 20 36 0 7 6 19 13 26 27 29 53 124 61 225 5 65 -44 234 -80
274 -8 8 -14 19 -14 22 0 7 -21 33 -79 99 -82 93 -236 195 -406 267 -90 39
-303 104 -380 116 -16 3 -41 7 -55 10 -27 5 -73 11 -165 22 -74 9 -5002 9
-5065 0 -95 -14 -105 -16 -105 -17 0 -1 -11 -4 -25 -6 -59 -11 -180 -48 -237
-74 -34 -16 -64 -26 -67 -22 -3 3 -6 0 -6 -6 0 -7 -5 -12 -11 -12 -31 0 -175
-117 -229 -187 -60 -77 -87 -184 -70 -273 10 -54 41 -130 52 -130 5 0 8 -6 8
-12 0 -18 66 -87 130 -137 82 -64 304 -163 395 -176 11 -1 36 -6 55 -10 19 -4
46 -9 60 -10 14 -2 25 -4 25 -5 0 -11 4351 -23 4398 -12 15 4 17 17 17 91 l0
87 -2117 1 c-1883 0 -2258 3 -2282 17 -3 2 -22 7 -43 10 -99 16 -253 87 -319
148 -110 103 -131 218 -59 323 30 43 99 105 132 118 11 4 32 15 47 26 45 31
196 75 302 88 86 10 4875 9 4964 -1 39 -4 81 -9 95 -11 23 -2 83 -13 120 -21
146 -33 245 -68 363 -129 168 -86 267 -178 330 -305 29 -59 32 -72 31 -160 0
-90 -2 -99 -38 -166 -45 -87 -127 -172 -226 -236 -41 -26 -81 -53 -87 -58 -7
-6 -13 -8 -13 -4 0 3 -6 1 -13 -5 -8 -6 -17 -8 -20 -4 -4 3 -7 1 -7 -5 0 -7
-4 -12 -9 -12 -5 0 -26 -7 -47 -16 -22 -9 -41 -16 -44 -16 -3 0 -13 -4 -23
-10 -17 -9 -131 -41 -187 -52 -14 -3 -34 -7 -45 -9 -26 -6 -102 -19 -140 -24
-16 -2 -121 -5 -233 -7 -112 -2 -205 -6 -208 -9 -3 -3 -18 -2 -32 2 -32 8
-214 6 -236 -2 -9 -4 -16 -3 -16 1 0 8 -187 8 -196 -1 -3 -3 -16 -3 -28 1 -11
4 -183 7 -381 6 l-360 -1 -50 44 c-74 68 -125 88 -217 88 -42 0 -82 -5 -88
-11 -5 -5 -11 -34 -13 -64 -2 -54 -3 -55 -33 -56 -18 0 -39 -4 -48 -7 -9 -4
-16 -3 -16 1 0 8 -197 8 -206 0 -3 -4 -18 -3 -32 1 -32 8 -214 6 -236 -2 -9
-4 -16 -3 -16 1 0 8 -187 8 -196 -1 -3 -3 -16 -3 -28 1 -11 4 -143 7 -292 6
l-271 -1 -1 55 c0 30 -6 60 -12 66 -6 6 -44 11 -88 10 -89 0 -148 -25 -219
-92 l-43 -40 -117 2 c-65 1 -130 -2 -145 -5 -16 -4 -28 -5 -28 -1 0 8 -188 8
-196 0 -3 -4 -18 -3 -32 1 -32 8 -214 6 -236 -2 -9 -4 -16 -3 -16 1 0 6 -185
8 -200 2 -3 -1 -9 -1 -15 0 -5 1 -80 3 -165 5 -85 2 -168 6 -185 9 -16 3 -55
8 -85 11 -75 8 -163 24 -270 50 -622 147 -1015 507 -966 885 10 75 14 90 46
159 38 81 95 158 175 234 64 62 227 177 251 177 8 0 14 4 14 8 0 9 50 33 215
102 77 31 287 90 375 104 19 3 46 8 59 10 13 3 46 8 75 11 28 4 65 8 81 10
108 15 433 17 2568 17 2345 1 2379 1 2386 20 9 24 6 146 -4 156 -5 5 -4742 11
-4748 6z m2901 -2213 c2 -127 2 -147 -1 -176 -1 -16 1 -45 4 -62 4 -18 4 -33
0 -33 -3 0 -5 -29 -4 -65 l2 -65 -63 44 c-63 44 -243 136 -266 136 -6 0 -26 6
-43 14 -18 8 -43 16 -57 19 -14 3 -34 7 -45 10 -114 27 -315 28 -435 1 -14 -3
-36 -7 -49 -10 -81 -17 -331 -127 -331 -146 0 -4 -5 -8 -11 -8 -6 0 -22 -9
-36 -20 -14 -11 -29 -20 -33 -20 -8 0 -12 419 -5 431 3 3 312 6 688 6 l684 0
1 -56z m-1143 -5231 c115 -71 177 -228 178 -449 0 -109 -3 -142 -17 -196 -21
-86 -31 -115 -38 -115 -4 0 -8 -6 -8 -14 0 -34 -106 -144 -145 -150 -8 -1 -17
-5 -20 -8 -10 -9 -84 1 -113 16 -35 18 -102 86 -102 103 0 7 -3 13 -8 13 -7 0
-49 100 -57 139 -3 11 -8 31 -11 44 -14 59 -10 264 7 343 50 231 202 355 334
274z m1138 -19 c62 -24 149 -148 172 -246 4 -16 9 -39 12 -50 12 -49 10 -231
-4 -294 -50 -218 -186 -341 -315 -282 -78 35 -139 118 -172 231 -30 104 -37
197 -24 292 5 34 10 73 11 85 1 13 5 23 8 23 3 0 6 6 6 13 0 20 45 117 54 117
5 0 9 6 9 14 0 18 74 84 113 101 34 14 87 13 130 -4z"/>
<path d="M6876 6317 c3 -10 9 -15 12 -12 3 3 0 11 -7 18 -10 9 -11 8 -5 -6z"/>
</g>
</svg>
