<?xml version="1.0" standalone="no"?>
<!DOCTYPE svg PUBLIC "-//W3C//DTD SVG 20010904//EN"
 "http://www.w3.org/TR/2001/REC-SVG-20010904/DTD/svg10.dtd">
<svg version="1.0" xmlns="http://www.w3.org/2000/svg"
 width="912.000000pt" height="912.000000pt" viewBox="0 0 912.000000 912.000000"
 preserveAspectRatio="xMidYMid meet">
<metadata>
Created by potrace 1.11, written by Peter Selinger 2001-2013
</metadata>
<g transform="translate(0.000000,912.000000) scale(0.100000,-0.100000)"
fill="#000000" stroke="none">
<path d="M2317 9094 c-1 -1 -55 -4 -119 -8 -65 -4 -123 -8 -130 -11 -7 -2 -40
-6 -73 -10 -76 -7 -112 -13 -200 -32 -38 -8 -79 -16 -89 -18 -65 -14 -191 -50
-251 -72 -38 -14 -74 -26 -80 -27 -14 -4 -40 -15 -130 -53 -401 -173 -681
-465 -721 -753 -9 -60 -11 -140 -4 -140 3 0 5 -17 6 -37 2 -79 46 -192 115
-299 50 -76 187 -220 239 -251 17 -9 30 -21 30 -26 0 -4 5 -5 10 -2 6 3 10 2
10 -3 0 -5 37 -32 83 -60 201 -123 397 -201 669 -268 54 -13 70 -16 143 -29
17 -3 37 -8 45 -10 8 -2 41 -7 73 -10 32 -4 68 -8 80 -11 102 -20 239 -24 835
-25 309 0 562 -4 562 -8 0 -5 -7 -27 -15 -50 -8 -22 -17 -60 -20 -83 -3 -24
-8 -56 -10 -73 -14 -100 1 -311 26 -357 5 -10 7 -18 4 -18 -7 0 31 -95 62
-157 15 -29 30 -53 34 -53 10 0 19 -44 10 -50 -19 -12 -134 -225 -179 -330
-30 -71 -35 -85 -36 -90 -1 -3 -9 -25 -18 -50 -18 -49 -65 -210 -72 -250 -2
-14 -9 -44 -14 -68 -12 -50 -12 -50 -13 -59 -1 -5 -2 -12 -3 -18 -1 -5 -8 -65
-16 -132 -7 -68 -17 -123 -21 -123 -4 0 -29 9 -56 21 -26 11 -55 22 -63 24 -8
2 -33 11 -55 21 -22 10 -42 18 -45 18 -3 1 -34 16 -70 35 -301 156 -509 409
-590 718 -23 90 -31 270 -16 358 4 22 9 51 11 65 4 23 23 89 40 135 6 16 3 15
-14 -5 -12 -14 -27 -36 -35 -50 -7 -14 -30 -54 -51 -90 -97 -170 -190 -347
-258 -497 -88 -194 -107 -237 -113 -258 -1 -5 -10 -28 -20 -50 -10 -22 -19
-44 -20 -50 -2 -5 -10 -28 -18 -50 -31 -83 -97 -271 -100 -284 -3 -18 -26 -27
-26 -12 0 6 -5 11 -11 11 -29 0 -209 139 -299 231 -100 102 -200 242 -262 364
-99 194 -166 449 -173 655 -2 69 -15 92 -21 38 -10 -96 -13 -126 -19 -159 -6
-36 -8 -55 -19 -164 -4 -33 -9 -76 -11 -95 -3 -19 -8 -62 -10 -95 -3 -33 -7
-80 -10 -105 -27 -286 -37 -539 -35 -900 1 -350 3 -416 12 -426 4 -4 3 -14 -2
-24 -5 -10 -7 -20 -4 -23 4 -3 8 -39 10 -79 2 -40 6 -95 9 -123 3 -27 7 -72
10 -100 15 -163 26 -250 39 -330 3 -16 8 -48 10 -70 7 -56 15 -103 26 -155 5
-25 12 -59 15 -77 7 -46 61 -275 86 -363 11 -41 24 -88 28 -105 8 -28 44 -137
72 -215 7 -19 21 -54 31 -77 10 -24 18 -45 18 -48 0 -21 119 -260 175 -353 27
-45 55 -90 60 -100 13 -21 95 -131 115 -153 115 -125 173 -178 255 -235 121
-82 251 -136 368 -150 l37 -5 1 53 c1 77 8 127 30 238 6 30 13 62 14 70 2 8 4
15 4 15 3 0 52 142 53 153 1 6 5 12 10 12 4 0 8 6 8 13 0 17 74 161 90 177 3
3 11 16 18 30 11 23 25 43 92 131 35 46 218 229 259 259 19 14 42 32 51 40 98
93 476 279 640 315 8 2 53 12 100 24 76 18 171 35 253 46 15 2 27 0 27 -4 0
-4 -12 -13 -27 -20 -36 -17 -167 -103 -171 -113 -2 -4 -8 -8 -14 -8 -5 0 -15
-6 -22 -12 -7 -7 -33 -29 -57 -49 -118 -98 -245 -246 -321 -374 -136 -228
-207 -467 -212 -713 -2 -81 8 -223 19 -272 3 -14 8 -41 11 -60 3 -19 10 -43
15 -52 5 -10 7 -18 5 -18 -3 0 -1 -12 5 -27 6 -16 12 -35 14 -43 14 -61 96
-238 149 -320 l35 -55 -33 -15 c-33 -15 -97 -61 -127 -91 -33 -33 -97 -137
-103 -169 -2 -8 -5 -22 -8 -30 -20 -56 -25 -102 -22 -202 1 -62 5 -120 7 -128
2 -8 7 -28 11 -45 4 -16 9 -36 12 -43 2 -7 4 -14 4 -17 6 -39 109 -213 132
-220 10 -4 29 6 50 27 33 32 78 74 288 268 57 52 134 125 172 161 l69 66 62
-36 c152 -89 370 -171 514 -195 12 -2 34 -7 50 -10 148 -30 353 -35 543 -12
136 16 394 90 477 137 18 10 33 17 33 14 0 -2 27 12 61 31 33 18 64 34 67 34
3 0 13 7 23 16 16 14 22 11 81 -44 34 -32 87 -81 117 -108 30 -27 75 -69 101
-94 61 -58 236 -219 268 -246 l25 -22 31 42 c135 177 178 457 103 661 -23 62
-45 101 -76 134 -16 17 -26 31 -23 31 7 0 -100 80 -107 80 -3 0 -12 4 -19 8
-14 9 -9 21 39 97 78 124 162 348 184 490 24 156 23 403 -2 495 -3 14 -7 34
-8 45 -2 22 -23 99 -35 130 -5 11 -18 45 -29 76 -26 74 -82 193 -93 197 -4 2
-8 9 -8 15 0 14 -89 144 -140 207 -48 59 -151 162 -208 207 -26 21 -49 40 -52
43 -3 3 -25 19 -50 35 -25 16 -47 32 -50 36 -5 5 -123 73 -173 98 -66 35 44
35 220 1 32 -6 67 -13 78 -15 11 -2 49 -11 85 -19 61 -15 84 -22 135 -42 11
-4 23 -8 28 -9 4 -2 8 -3 10 -5 1 -1 9 -3 18 -5 38 -7 241 -104 324 -154 37
-23 69 -41 71 -41 2 0 12 -6 21 -14 10 -8 47 -36 82 -62 86 -64 217 -190 284
-272 206 -253 316 -533 331 -839 1 -23 5 -45 9 -49 3 -4 47 3 96 15 92 23 203
71 279 122 24 16 45 29 48 29 9 0 71 57 160 146 164 165 311 401 427 689 60
149 60 148 63 162 1 7 9 32 17 55 32 92 93 299 103 352 2 12 6 31 9 44 5 21 9
39 20 92 15 72 34 167 41 205 2 17 9 55 14 85 15 92 23 143 25 180 2 19 4 35
5 35 2 0 4 14 5 30 1 17 5 55 8 85 13 101 22 216 33 400 10 160 10 766 1 935
-14 262 -19 337 -31 440 -3 22 -8 69 -11 105 -3 36 -8 83 -11 105 -3 22 -6 56
-8 75 -6 49 -16 130 -21 160 -3 14 -7 50 -11 80 -5 53 -10 68 -18 59 -2 -2 -6
-44 -9 -94 -4 -49 -9 -106 -13 -125 -6 -38 -31 -153 -40 -185 -3 -11 -6 -24
-8 -30 -10 -42 -46 -135 -83 -214 -111 -240 -283 -444 -497 -590 -27 -19 -81
-51 -122 -72 l-73 -39 -12 43 c-6 23 -15 51 -20 62 -4 11 -19 52 -32 90 -25
70 -71 192 -87 230 -5 11 -22 49 -38 85 -16 36 -37 85 -48 110 -31 74 -223
449 -234 460 -3 3 -11 16 -18 30 -7 14 -18 34 -25 45 -7 11 -30 51 -51 87 -22
37 -41 66 -42 65 -2 -2 7 -36 20 -77 13 -41 23 -79 24 -85 0 -5 4 -39 8 -75 9
-76 8 -179 -1 -234 -4 -21 -8 -48 -9 -60 -1 -12 -6 -27 -10 -34 -4 -7 -5 -12
-2 -12 10 0 -55 -172 -90 -239 -64 -120 -189 -267 -299 -350 -22 -17 -44 -34
-50 -38 -24 -18 -93 -60 -130 -78 -22 -11 -43 -24 -47 -30 -4 -5 -8 -6 -8 -1
0 4 -10 2 -22 -6 -13 -8 -50 -24 -83 -36 -33 -11 -88 -32 -122 -46 -35 -13
-63 -24 -64 -23 0 1 -2 34 -4 72 -5 90 -13 173 -20 205 -3 14 -7 41 -9 60 -4
30 -14 84 -30 155 -14 68 -57 210 -95 317 -36 100 -140 307 -188 375 -28 39
-28 39 0 77 37 48 93 174 112 251 19 76 26 325 11 400 -4 22 -9 47 -10 55 -2
8 -6 22 -9 30 -4 8 -8 26 -9 40 l-3 25 695 1 c631 2 954 7 1035 19 16 2 52 7
80 11 27 3 57 8 65 10 8 2 45 10 83 18 137 30 255 68 357 112 74 33 178 87
204 107 6 4 35 25 65 47 411 301 389 736 -52 1023 -142 92 -343 177 -500 212
-10 2 -26 6 -35 9 -9 3 -28 7 -42 10 -14 3 -34 7 -45 9 -51 11 -131 23 -235
34 -90 10 -5089 10 -5170 0 -36 -4 -83 -12 -105 -18 -22 -5 -52 -11 -66 -13
-69 -9 -339 -118 -339 -138 0 -4 -5 -8 -11 -8 -15 0 -78 -48 -126 -98 -117
-119 -151 -274 -88 -407 50 -107 154 -201 305 -276 66 -33 143 -63 190 -75
132 -32 173 -40 260 -51 62 -7 4409 -10 4439 -3 23 6 24 10 23 80 0 41 -1 80
-1 86 -1 9 -571 12 -2168 12 -1960 0 -2247 2 -2325 18 -13 2 -34 6 -46 9 -183
34 -381 168 -411 278 -33 117 35 240 172 313 28 15 63 33 77 41 14 7 33 13 42
13 9 0 19 4 22 9 5 8 68 24 101 26 6 0 15 3 20 7 31 19 363 22 2610 22 2247
-1 2579 -3 2655 -19 14 -3 41 -8 60 -11 103 -16 350 -92 375 -115 5 -5 17 -9
27 -9 10 0 18 -3 18 -7 0 -5 19 -17 43 -28 23 -11 48 -26 55 -32 8 -7 23 -18
34 -24 83 -45 205 -195 229 -283 38 -142 -5 -277 -127 -399 -80 -79 -128 -113
-239 -168 -111 -54 -170 -77 -241 -94 -10 -3 -46 -11 -79 -20 -70 -17 -92 -22
-160 -31 -27 -3 -59 -9 -70 -11 -11 -3 -414 -6 -895 -8 l-875 -2 -40 39 c-79
79 -197 114 -289 86 -32 -10 -33 -11 -31 -64 2 -32 -2 -54 -9 -57 -6 -2 -315
-3 -686 -3 -668 1 -675 1 -676 21 -1 11 -3 25 -4 30 -1 6 -1 19 -1 31 3 35
-25 48 -103 48 -61 -1 -82 -6 -126 -30 -29 -16 -69 -45 -89 -65 l-36 -36 -660
2 c-363 1 -685 5 -715 9 -146 19 -287 43 -360 61 -11 3 -30 7 -41 10 -12 2
-36 9 -54 15 -18 6 -41 12 -51 14 -40 8 -233 85 -310 124 -102 51 -246 148
-304 205 -58 56 -120 127 -120 136 0 4 -13 25 -29 47 -16 21 -29 42 -29 47 -1
4 -10 33 -22 63 -53 143 -26 317 74 467 39 58 159 187 175 187 5 0 11 3 13 8
5 13 85 72 97 72 6 0 11 5 11 10 0 6 4 10 9 10 5 0 40 18 78 39 37 21 109 56
158 76 50 20 99 41 110 45 26 11 165 53 185 56 8 1 24 4 35 7 79 20 176 39
203 40 6 0 12 3 12 6 0 3 17 6 38 7 20 0 57 4 82 9 25 5 1172 10 2549 12 1520
2 2509 7 2516 13 13 10 14 154 1 167 -6 6 -4851 13 -4859 7z m2938 -2386 c0
-149 -3 -224 -10 -221 -5 3 -24 16 -40 28 -65 48 -235 135 -295 151 -8 2 -49
13 -90 24 -41 11 -97 23 -125 26 -111 14 -277 6 -354 -16 -17 -5 -31 -6 -31
-3 0 3 -7 0 -15 -7 -8 -7 -15 -10 -15 -7 0 4 -18 0 -40 -8 -22 -8 -40 -11 -40
-8 0 3 -9 -2 -20 -12 -11 -10 -20 -15 -20 -10 0 4 -6 2 -13 -4 -8 -6 -17 -8
-20 -4 -4 3 -7 1 -7 -5 0 -7 -7 -12 -15 -12 -8 0 -37 -13 -65 -30 -28 -16 -53
-30 -55 -30 -3 0 -29 -17 -57 -37 -29 -20 -50 -33 -46 -29 3 4 3 20 -2 35 -4
16 -4 34 0 41 4 7 4 26 0 41 -5 16 -5 42 0 59 5 16 5 32 1 34 -4 3 -5 28 -3
58 2 29 2 64 1 78 0 14 -1 34 0 45 0 11 1 28 2 37 0 16 45 17 687 15 l687 -2
0 -227z m-505 -3752 c68 -7 87 -10 160 -25 194 -41 386 -130 500 -231 14 -12
32 -27 40 -34 58 -43 150 -178 184 -268 16 -43 20 -64 30 -146 4 -27 -9 -26
-80 4 -21 10 -43 19 -49 20 -5 1 -39 12 -75 24 -65 21 -154 45 -200 54 -14 2
-50 10 -80 16 -30 6 -71 13 -90 16 -19 2 -51 7 -70 10 -89 15 -258 24 -415 23
-216 -2 -297 -8 -513 -44 -12 -2 -30 -6 -40 -9 -9 -3 -33 -7 -52 -10 -19 -3
-82 -19 -140 -36 -58 -17 -109 -32 -115 -33 -5 -2 -20 -9 -32 -15 -13 -7 -23
-10 -23 -8 0 3 -30 -8 -66 -24 -92 -42 -93 -41 -82 28 28 180 101 303 264 442
142 122 428 231 642 245 36 2 66 5 67 7 6 5 164 1 235 -6z m-655 -1299 c67
-26 122 -99 159 -208 30 -91 38 -140 38 -249 -1 -121 -9 -182 -39 -263 -77
-214 -222 -282 -354 -165 -49 44 -102 147 -125 245 -4 15 -7 96 -7 178 -1 131
2 160 23 230 13 44 27 82 31 85 4 3 9 12 11 19 3 14 19 36 55 76 61 67 129 84
208 52z m1162 -31 c53 -29 123 -109 123 -140 0 -9 5 -16 12 -16 6 0 9 -3 6 -6
-4 -3 2 -24 12 -47 31 -71 42 -215 26 -341 -7 -63 -58 -196 -83 -221 -8 -8
-12 -15 -9 -15 3 0 -13 -18 -35 -39 -61 -58 -165 -75 -210 -35 -11 9 -19 14
-19 11 0 -11 -61 56 -85 93 -122 193 -100 558 42 705 67 69 151 88 220 51z"/>
</g>
</svg>
